<mxfile host="app.diagrams.net" modified="2023-05-18T11:40:46.009Z" agent="Mozilla/5.0 (Macintosh; Intel Mac OS X 10_15_7) AppleWebKit/537.36 (KHTML, like Gecko) Chrome/112.0.0.0 Safari/537.36" version="21.3.0" etag="noPPBaHk3JaZbdjpfj3L" type="github">
  <diagram name="Page-1" id="vumdMGlK4g-qR3k9lRKO">
    <mxGraphModel>
      <root>
        <mxCell id="0" />
        <mxCell id="1" parent="0" />
      </root>
    </mxGraphModel>
  </diagram>
</mxfile>
